<svg width="22" height="22" viewBox="0 0 22 22" fill="none" xmlns="http://www.w3.org/2000/svg">
<g id="vuesax/linear/align-vertically">
<g id="align-vertically">
<path id="Vector" d="M15.8708 17.7457H6.31366C4.98627 17.7457 4.45532 17.1793 4.45532 15.7723V14.852C4.45532 13.4449 4.98627 12.8786 6.31366 12.8786H15.8708C17.1982 12.8786 17.7291 13.4449 17.7291 14.852V15.7723C17.7291 17.1793 17.1982 17.7457 15.8708 17.7457Z" stroke="#FEDC5A" stroke-width="1.32738" stroke-linecap="round" stroke-linejoin="round"/>
<path id="Vector_2" d="M14.1009 10.2238H8.08343C6.75605 10.2238 6.2251 9.65746 6.2251 8.25044V7.33012C6.2251 5.9231 6.75605 5.35675 8.08343 5.35675H14.1009C15.4283 5.35675 15.9592 5.9231 15.9592 7.33012V8.25044C15.9592 9.65746 15.4283 10.2238 14.1009 10.2238Z" stroke="#FEDC5A" stroke-width="1.32738" stroke-linecap="round" stroke-linejoin="round"/>
<path id="Vector_3" d="M11.0923 20.1792V18.0554" stroke="#FEDC5A" stroke-width="1.32738" stroke-linecap="round" stroke-linejoin="round"/>
<path id="Vector_4" d="M11.0923 12.2148V10.445" stroke="#FEDC5A" stroke-width="1.32738" stroke-linecap="round" stroke-linejoin="round"/>
<path id="Vector_5" d="M11.0923 2.48077V4.86121" stroke="#292D32" stroke-width="1.32738" stroke-linecap="round" stroke-linejoin="round"/>
</g>
</g>
</svg>
