<svg width="22" height="22" viewBox="0 0 22 22" fill="none" xmlns="http://www.w3.org/2000/svg">
<g id="vuesax/linear/camera">
<g id="camera">
<path id="Vector" d="M6.66944 20.1792H15.9434C18.3858 20.1792 19.3592 18.6837 19.4742 16.8607L19.9344 9.55129C20.0583 7.63986 18.5362 6.02046 16.6159 6.02046C16.0761 6.02046 15.5806 5.71073 15.3328 5.23288L14.6957 3.94974C14.2886 3.14446 13.2267 2.48077 12.3241 2.48077H10.2976C9.38615 2.48077 8.32424 3.14446 7.91718 3.94974L7.28003 5.23288C7.03226 5.71073 6.5367 6.02046 5.9969 6.02046C4.07662 6.02046 2.55456 7.63986 2.67845 9.55129L3.13861 16.8607C3.2448 18.6837 4.22706 20.1792 6.66944 20.1792Z" stroke="#5454D4" stroke-width="1.32738" stroke-linecap="round" stroke-linejoin="round"/>
<path id="Vector_2" d="M9.97925 7.79028H12.634" stroke="#5454D4" stroke-width="1.32738" stroke-linecap="round" stroke-linejoin="round"/>
<path id="Vector_3" d="M11.3067 16.6396C12.8907 16.6396 14.1826 15.3476 14.1826 13.7636C14.1826 12.1796 12.8907 10.8876 11.3067 10.8876C9.72265 10.8876 8.43066 12.1796 8.43066 13.7636C8.43066 15.3476 9.72265 16.6396 11.3067 16.6396Z" stroke="#5454D4" stroke-width="1.32738" stroke-linecap="round" stroke-linejoin="round"/>
</g>
</g>
</svg>
