<svg width="22" height="22" viewBox="0 0 22 22" fill="none" xmlns="http://www.w3.org/2000/svg">
<g id="vuesax/linear/layer">
<g id="layer">
<path id="Vector" d="M12.2002 3.25926L17.4212 5.57775C18.9256 6.24144 18.9256 7.33874 17.4212 8.00243L12.2002 10.3209C11.6073 10.5864 10.6339 10.5864 10.041 10.3209L4.81992 8.00243C3.31556 7.33874 3.31556 6.24144 4.81992 5.57775L10.041 3.25926C10.6339 2.99378 11.6073 2.99378 12.2002 3.25926Z" stroke="#F04037" stroke-width="1.32738" stroke-linecap="round" stroke-linejoin="round"/>
<path id="Vector_2" d="M3.34229 10.4094C3.34229 11.1527 3.89979 12.0111 4.58117 12.3119L10.5898 14.9844C11.0499 15.1879 11.572 15.1879 12.0234 14.9844L18.032 12.3119C18.7134 12.0111 19.2709 11.1527 19.2709 10.4094" stroke="#F04037" stroke-width="1.32738" stroke-linecap="round" stroke-linejoin="round"/>
<path id="Vector_3" d="M3.34229 14.834C3.34229 15.657 3.82899 16.4003 4.58117 16.7366L10.5898 19.4091C11.0499 19.6126 11.572 19.6126 12.0234 19.4091L18.032 16.7366C18.7841 16.4003 19.2709 15.657 19.2709 14.834" stroke="#F04037" stroke-width="1.32738" stroke-linecap="round" stroke-linejoin="round"/>
</g>
</g>
</svg>
