<svg width="83" height="84" viewBox="0 0 83 84" fill="none" xmlns="http://www.w3.org/2000/svg">
<g id="Play">
<path id="Oval" fill-rule="evenodd" clip-rule="evenodd" d="M41.6429 83.0295C64.3688 83.0295 82.7917 64.6066 82.7917 41.8807C82.7917 19.1549 64.3688 0.731934 41.6429 0.731934C18.9171 0.731934 0.494141 19.1549 0.494141 41.8807C0.494141 64.6066 18.9171 83.0295 41.6429 83.0295Z" fill="#5454D4"/>
<g id="button-play">
<path id="Path" d="M48.4643 41.592L35.8715 34.6235C35.7661 34.5651 35.6369 34.5657 35.5321 34.6252C35.4274 34.6847 35.363 34.794 35.363 34.9122V48.8493C35.363 48.9675 35.4274 49.0768 35.5321 49.1362C35.6369 49.1957 35.7661 49.1964 35.8715 49.138L48.4643 42.1694C48.5709 42.1105 48.6368 42.0002 48.6368 41.8807C48.6368 41.7612 48.5709 41.651 48.4643 41.592Z" fill="white"/>
</g>
</g>
</svg>
