<svg width="34" height="34" viewBox="0 0 34 34" fill="none" xmlns="http://www.w3.org/2000/svg">
<path d="M17.0357 5.73303C17.7994 5.73303 18.4184 6.35208 18.4184 7.11572V15.4119H26.7146C27.4782 15.4119 28.0972 16.0309 28.0972 16.7945C28.0972 17.5582 27.4782 18.1772 26.7146 18.1772H18.4184V26.4734C18.4184 27.237 17.7994 27.856 17.0357 27.856C16.2721 27.856 15.6531 27.237 15.6531 26.4734V18.1772H7.35693C6.59329 18.1772 5.97424 17.5582 5.97424 16.7945C5.97424 16.0309 6.59329 15.4119 7.35693 15.4119H15.6531V7.11572C15.6531 6.35208 16.2721 5.73303 17.0357 5.73303Z" fill="#E7E7E7"/>
</svg>
