<svg width="23" height="22" viewBox="0 0 23 22" fill="none" xmlns="http://www.w3.org/2000/svg">
<g id="vuesax/linear/code">
<g id="code">
<path id="Vector" d="M8.866 12.1793C8.28196 12.4713 7.79525 12.9049 7.43243 13.4447C7.2289 13.7544 7.2289 14.1438 7.43243 14.4535C7.79525 14.9933 8.28196 15.4269 8.866 15.7189" stroke="#FEDC5A" stroke-width="1.32738" stroke-linecap="round" stroke-linejoin="round"/>
<path id="Vector_2" d="M14.3613 12.1793C14.9454 12.4713 15.4321 12.9049 15.7949 13.4447C15.9984 13.7544 15.9984 14.1438 15.7949 14.4535C15.4321 14.9933 14.9454 15.4269 14.3613 15.7189" stroke="#FEDC5A" stroke-width="1.32738" stroke-linecap="round" stroke-linejoin="round"/>
<path id="Vector_3" d="M8.86607 20.1435H14.1756C18.6002 20.1435 20.37 18.3736 20.37 13.949V8.63951C20.37 4.21491 18.6002 2.44507 14.1756 2.44507H8.86607C4.44147 2.44507 2.67163 4.21491 2.67163 8.63951V13.949C2.67163 18.3736 4.44147 20.1435 8.86607 20.1435Z" stroke="#FEDC5A" stroke-width="1.32738" stroke-linecap="round" stroke-linejoin="round"/>
<path id="Vector_4" d="M2.875 7.76346L19.8832 7.75461" stroke="#FEDC5A" stroke-width="1.32738" stroke-linecap="round" stroke-linejoin="round"/>
</g>
</g>
</svg>
