<svg width="22" height="22" viewBox="0 0 22 22" fill="none" xmlns="http://www.w3.org/2000/svg">
<g id="vuesax/linear/code">
<g id="code">
<path id="Vector" d="M8.43729 12.1793C7.85325 12.4713 7.36654 12.9049 7.00372 13.4447C6.80019 13.7544 6.80019 14.1438 7.00372 14.4535C7.36654 14.9933 7.85325 15.4269 8.43729 15.7189" stroke="#5454D4" stroke-width="1.32738" stroke-linecap="round" stroke-linejoin="round"/>
<path id="Vector_2" d="M13.9329 12.1793C14.5169 12.4713 15.0036 12.9049 15.3664 13.4447C15.57 13.7544 15.57 14.1438 15.3664 14.4535C15.0036 14.9933 14.5169 15.4269 13.9329 15.7189" stroke="#5454D4" stroke-width="1.32738" stroke-linecap="round" stroke-linejoin="round"/>
<path id="Vector_3" d="M8.43761 20.1435H13.7471C18.1717 20.1435 19.9416 18.3736 19.9416 13.949V8.63951C19.9416 4.21491 18.1717 2.44507 13.7471 2.44507H8.43761C4.01301 2.44507 2.24316 4.21491 2.24316 8.63951V13.949C2.24316 18.3736 4.01301 20.1435 8.43761 20.1435Z" stroke="#5454D4" stroke-width="1.32738" stroke-linecap="round" stroke-linejoin="round"/>
<path id="Vector_4" d="M2.44653 7.76346L19.4547 7.75461" stroke="#5454D4" stroke-width="1.32738" stroke-linecap="round" stroke-linejoin="round"/>
</g>
</g>
</svg>
