<svg width="23" height="22" viewBox="0 0 23 22" fill="none" xmlns="http://www.w3.org/2000/svg">
<g id="vuesax/linear/video-play">
<g id="video-play">
<path id="Vector" d="M20.37 13.9847V8.67522C20.37 4.25061 18.6002 2.48077 14.1756 2.48077H8.86607C4.44147 2.48077 2.67163 4.25061 2.67163 8.67522V13.9847C2.67163 18.4093 4.44147 20.1792 8.86607 20.1792H14.1756C18.6002 20.1792 20.37 18.4093 20.37 13.9847Z" stroke="#F04037" stroke-width="1.32738" stroke-linecap="round" stroke-linejoin="round"/>
<path id="Vector_2" d="M3.13159 7.00281H19.9097" stroke="#F04037" stroke-width="1.32738" stroke-linecap="round" stroke-linejoin="round"/>
<path id="Vector_3" d="M8.44116 2.57819V6.8789" stroke="#F04037" stroke-width="1.32738" stroke-linecap="round" stroke-linejoin="round"/>
<path id="Vector_4" d="M14.6003 2.57819V6.48069" stroke="#F04037" stroke-width="1.32738" stroke-linecap="round" stroke-linejoin="round"/>
<path id="Vector_5" d="M9.52979 13.4981V12.4362C9.52979 11.0734 10.4943 10.5159 11.6713 11.1973L12.5916 11.7283L13.5119 12.2592C14.6889 12.9406 14.6889 14.0556 13.5119 14.737L12.5916 15.2679L11.6713 15.7989C10.4943 16.4803 9.52979 15.9228 9.52979 14.56V13.4981V13.4981Z" stroke="#F04037" stroke-width="1.32738" stroke-miterlimit="10" stroke-linecap="round" stroke-linejoin="round"/>
</g>
</g>
</svg>
